<svg xmlns="http://www.w3.org/2000/svg" aria-label="Vídeo" viewBox="0 0 234 232"><switch><g><path class="icon-background" d="M117 219.3c-56.8 0-103.3-46.5-103.3-103.3S60.2 12.7 117 12.7 220.3 59.2 220.3 116 173.8 219.3 117 219.3z" opacity=".5" fill="#040006"/><path class="icon-stroke" fill="#fff" d="M117 227C55.8 227 6 177.2 6 116S55.8 5 117 5s111 49.8 111 111-49.8 111-111 111zm0-206.7c-52.8 0-95.7 42.9-95.7 95.7s42.9 95.7 95.7 95.7 95.7-42.9 95.7-95.7-42.9-95.7-95.7-95.7z"/><path class="icon-shape" fill="#fff" d="M147.2 111.6 102 78.7c-1.7-1.2-3.9-1.4-5.7-.5-1.8.9-3 2.8-3 4.9v65.7c0 2 1.1 3.9 3 4.9.8.4 1.6.6 2.5.6 1.1 0 2.2-.4 3.2-1.1l45.2-32.9c1.5-1.1 4.1-2.7 4.1-4.4 0-1.7-2.7-3.2-4.1-4.3zm0 0"/></g></switch></svg>