<svg xmlns="http://www.w3.org/2000/svg" viewBox="0 0 14.82 14"><path fill="#2666b1" fill-rule="evenodd" d="M13.16 0H1.66C.74 0 0 .68 0 1.51V13.3c0 .29.19.54.48.65.29.11.63.05.84-.16l2.8-2.65h9.04c.91 0 1.66-.68 1.66-1.51V1.51C14.83.7 14.09.02 13.16 0z"/><path fill="#fff" fill-rule="evenodd" d="M12.54 3.93c0 .42-.37.75-.81.75H3.09c-.22 0-.43-.08-.58-.23s-.23-.33-.23-.53v-.2c0-.42.37-.75.81-.75h8.64c.44 0 .8.34.8.75v.2h.01zm-2.28 3.12c0 .42-.39.75-.87.75H3.15c-.24 0-.46-.08-.62-.23a.704.704 0 0 1-.25-.53v-.2c0-.42.39-.74.87-.74h6.24c.48 0 .87.33.87.74v.2z"/></svg>