<svg xmlns="http://www.w3.org/2000/svg" viewBox="0 0 224 36"><rect x="23.4" width="71" height="6" rx="3" fill="#D9D9D9"/><rect x="101.4" width="21" height="6" rx="3" fill="#D9D9D9"/><rect x="129.4" width="71" height="6" rx="3" fill="#D9D9D9"/><rect y="21" width="70" height="8" rx="4" fill="#9AA2AF"/><path d="M87.7 16.6c-.2.2-3.2 2.4-7 3.2-.5 9 7 13.6 7 13.6s7.5-4.7 7-13.6c-3.8-.8-7-3.2-7-3.2z" fill="#9AA2AF"/><path d="M97.3 18.5c0-.2-.2-.5-.5-.5-4.7-1-8.7-3.9-8.8-3.9a.6.6 0 0 0-.7 0c-.1.1-4 3-8.8 3.9-.3 0-.5.3-.5.5a18.7 18.7 0 0 0 5.6 14.3 22.6 22.6 0 0 0 4 3.2c.3 0 .4 0 .7-.3l.7-.5a22.3 22.3 0 0 0 6.6-7.8c1.3-2.8 2-5.8 1.7-8.9zm-5.2 12.2a20.8 20.8 0 0 1-4.4 4c-.7-.5-2.6-1.8-4.4-4a17 17 0 0 1-4-11.7c4-.9 7.3-3 8.4-3.7 1 .7 4.4 2.8 8.5 3.7A17 17 0 0 1 92 30.7zM136 16.6c-.2.2-3.2 2.4-7 3.2-.5 9 7 13.6 7 13.6s7.6-4.7 7-13.6c-3.8-.8-7-3.2-7-3.2z" fill="#9AA2AF"/><path d="M145.7 18.5c0-.2-.2-.5-.5-.5-4.7-1-8.8-3.9-8.8-3.9a.6.6 0 0 0-.7 0c-.2.1-4 3-8.8 3.9-.3 0-.5.3-.5.5a18.7 18.7 0 0 0 5.5 14.3A22.6 22.6 0 0 0 136 36c.2 0 .3 0 .6-.3a16.4 16.4 0 0 0 3.1-2.5c1.8-1.7 3.2-3.7 4.2-5.8 1.4-2.8 2-5.8 1.8-8.9zm-5.3 12.2a20.8 20.8 0 0 1-4.4 4c-.7-.5-2.6-1.8-4.4-4a17 17 0 0 1-4-11.7c4-.9 7.4-3 8.4-3.7 1.1.7 4.5 2.8 8.5 3.7a17 17 0 0 1-4 11.7z" fill="#9AA2AF"/><rect x="153.7" y="21" width="70" height="8" rx="4" fill="#9AA2AF"/></svg>