<svg viewBox="0 0 37 36" xmlns="http://www.w3.org/2000/svg"><path d="M36.97 18c0-9.941-8.057-18-17.995-18S.98 8.059.98 18s8.057 18 17.995 18 17.994-8.059 17.994-18z" fill="#FF0209"/><path d="M26.613 25.972a14.55 14.55 0 0 1-1.61.067l-12.309-.01c-1.29 0-2.697-.041-3.695-.862-1.124-.928-1.358-2.535-1.449-3.99a51.976 51.976 0 0 1-.033-5.987c.057-1.096.157-2.218.629-3.21.339-.712.904-1.351 1.627-1.688.841-.39 1.721-.321 2.627-.322l6.501-.007 6.762-.006c1.064 0 2.207.021 3.076.637 1.122.795 1.426 2.306 1.567 3.673a37.51 37.51 0 0 1 .01 7.582c-.105 1.038-.28 2.136-.964 2.924-.678.782-1.683 1.083-2.737 1.198l-.002.001z" fill="#fff"/><path d="m22.644 18-6.115-3.531v7.063L22.644 18z" fill="#FF0209"/></svg>