<svg style="height:46px;width:46px" xmlns="http://www.w3.org/2000/svg" viewBox="0 0 257.986 250.113" xml:space="preserve"><path fill="#0878b7" d="M323.836-110.357h31.201c5.337 0 9.441-4.104 9.441-9.441v-3.695c0-5.337-4.104-9.44-9.441-9.44h-31.201c-29.969 0-33.664 25.043-33.664 35.308v19.705c0 10.264 3.694 35.307 33.664 35.307h31.201c5.337 0 9.441-4.104 9.441-9.44v-3.693c0-5.338-4.104-9.442-9.441-9.442h-31.201c-2.053 0-8.211 0-8.211-11.084h27.917c5.337 0 9.441-4.104 9.441-9.441v-3.693c0-5.338-4.104-9.44-9.441-9.44h-27.917c0-11.511 6.158-11.511 8.211-11.511zM125.957-69.714c-6.979 0-16.832 0-16.832-8.21 0-8.211 9.853-8.211 16.832-8.211v16.421zm22.579-65.686c0-5.337-4.104-9.441-9.441-9.441h-3.694c-5.337 0-9.44 4.104-9.44 9.441v24.633s-36.948-4.105-36.948 31.608c0 16.832 7.39 35.72 29.969 35.72h19.296c5.747 0 10.264-4.519 10.264-10.265V-135.4h-.006zm73.077 44.338c0-2.874-.41-9.854-1.644-18.888-1.643-11.494-9.854-22.987-29.56-22.987s-23.813 11.903-27.507 19.705c-3.693 7.801-3.283 26.686-3.283 26.686v23.813c0 2.873 1.643 5.746 4.104 7.391 1.645 1.23 3.285 1.643 5.338 1.643h3.693c1.644 0 3.284-.409 4.518-1.229 2.873-1.643 4.928-4.518 4.928-8.21v-2.054h16.011v13.138c0 5.337 4.104 9.439 9.441 9.439h3.694c5.337 0 9.441-4.104 9.441-9.439.826-.417.826-39.008.826-39.008zm-38.592 2.874c0-13.14 0-22.58 8.211-22.58 8.212 0 7.801 8.621 7.801 22.58h-16.012zm97.709-56.654h-49.267c-5.337 0-9.44 4.104-9.44 9.441v3.693c0 5.337 4.104 9.442 9.44 9.442h13.14v69.381c0 5.338 4.104 9.441 9.44 9.441h3.693c5.337 0 9.441-4.104 9.441-9.441v-69.38h13.139c5.337 0 9.44-4.105 9.44-9.442v-3.693c.416-4.926-3.689-9.442-9.026-9.442zM45.901-77.514V-112c0-5.336-4.104-9.441-9.439-9.441h-3.695c-5.337 0-9.441 4.104-9.441 9.441v31.201s0 13.958-8.211 13.958c0 0-8.211 1.229-8.211-15.188v-41.466c0-4.516-3.284-8.211-7.801-9.03-.82 0-1.643-.41-2.463-.41h-2.053c-.821 0-1.645 0-2.464.41-4.518.819-7.801 4.927-7.801 9.441v41.464s-3.694 38.591 29.56 39.412c32.84.001 32.019-31.2 32.019-35.306zm-73.486.821c0-5.336-4.104-6.979-9.441-6.979h-3.694c-4.517 0-8.62 1.644-9.441 5.748v2.049c0 2.463-.821 8.621-6.979 8.621-7.39 0-9.439-5.336-9.439-19.295 0-14.368.819-22.17 8.62-22.17 6.158 0 7.801 4.104 7.801 6.567v3.283c0 5.339 4.104 6.979 9.441 6.979h3.694c5.337 0 9.441-1.645 9.441-6.979v-10.674c0-12.728-9.031-21.349-25.453-22.991 0 0 7.39-8.619 14.779-15.188 7.389-6.568 6.156-9.441 2.873-13.958-3.283-4.516-8.211-4.104-14.778 1.231-6.568 5.336-18.063 16.011-25.043 28.735 0 0 .821-11.904 11.495-27.917 0 0 4.516-8.21-2.874-12.727-4.518-2.872-8.622-2.05-11.496 2.876-3.284 4.516-11.905 20.116-13.547 31.2l-2.465-16.421c-.409-3.694-4.928-7.801-10.265-6.979-4.516.821-7.8 5.747-6.979 10.263 1.229 5.748 12.727 75.54 24.632 94.013 4.516 6.979 7.801 15.19 29.146 15.19 8.621 0 25.863-.822 29.561-25.043.409-1.644.409-6.57.409-6.57v-1.641c.002-.403.002-1.223.002-1.223zm98.119-33.664H66.84c-5.337 0-9.441 4.104-9.441 9.441v48.442c0 5.337 4.104 9.44 9.441 9.44h3.694c5.338 0 9.441-4.104 9.441-9.44v-48.442c.411-5.335-4.103-9.441-9.441-9.441zm25.454-57.064H80.386v-15.601c0-3.695-3.284-6.979-6.979-6.979h-9.031c-3.695 0-6.979 3.284-6.979 6.979v15.601H41.796c-3.694 0-6.979 3.284-6.979 6.979v9.03c0 3.695 3.284 6.979 6.979 6.979h15.601v15.601c0 3.695 3.284 6.979 6.979 6.979h9.031c3.693 0 6.979-3.284 6.979-6.979v-16.01h15.602c3.694 0 6.979-3.285 6.979-6.979v-9.032c-.001-3.695-3.285-6.568-6.979-6.568z"/><circle fill="#0878b7" cx="130.134" cy="125.196" r="120.64"/><path d="M138.339 173.785c0-6.267-5.161-8.109-11.057-8.109h-4.426c-5.53 0-9.954 1.844-11.058 6.638v2.211c0 2.95-1.106 9.953-8.111 9.953-8.479 0-11.06-6.267-11.06-22.488 0-16.588 1.107-25.804 9.957-25.804 7.373 0 8.847 4.791 8.847 7.741v3.686c0 6.268 5.162 8.111 11.06 8.111h4.424c6.267 0 11.057-2.215 11.057-8.111v-12.534c0-14.747-10.688-24.7-29.493-26.912 0 0 8.849-10.323 17.328-17.696 8.849-7.374 7.004-11.06 3.316-16.222-4.057-5.162-9.584-5.162-16.958 1.477-7.374 6.267-21.013 18.432-29.126 33.917 0 0 1.105-14.01 13.272-32.443 0 0 5.161-9.585-3.318-14.745-5.53-2.95-9.954-2.213-13.638 3.317-3.687 5.529-14.012 23.223-15.853 36.126l-2.949-19.169c-.734-4.055-5.528-9.216-12.166-8.11-5.161.736-9.215 7.003-8.11 12.165 1.106 7.005 14.748 88.109 29.126 109.491 5.161 8.109 9.216 17.326 34.285 17.326 10.323 0 30.23-1.103 34.286-29.123.368-2.212.736-7.741.736-7.741v-1.844c-.371-.001-.371-1.108-.371-1.108zm71.52-105.803h-18.433V49.548c0-4.424-3.687-8.11-8.109-8.11h-10.323c-4.424 0-8.107 3.686-8.107 8.11v18.434H146.45c-4.425 0-8.111 3.685-8.111 8.111v10.32c0 4.426 3.687 8.112 8.111 8.112h18.432v18.433c0 4.423 3.685 8.107 8.107 8.107h10.323c4.423 0 8.109-3.685 8.109-8.107V94.524h18.432c4.426 0 8.109-3.685 8.109-8.112v-10.32c.006-4.424-3.68-8.11-8.103-8.11z" fill="#fff"/></svg>