<svg viewBox="0 0 37 36" xmlns="http://www.w3.org/2000/svg"><path d="M19.005 0h-.082C9.008 0 .97 8.04.97 17.959v.082C.97 27.959 9.008 36 18.923 36h.082c9.916 0 17.954-8.04 17.954-17.959v-.082C36.959 8.041 28.92 0 19.005 0z" fill="url(#a)"/><path d="M24.533 7.324H13.397a5.586 5.586 0 0 0-5.58 5.581v10.191a5.586 5.586 0 0 0 5.58 5.581h11.136a5.586 5.586 0 0 0 5.58-5.58V12.904a5.586 5.586 0 0 0-5.58-5.58zM9.785 12.905a3.616 3.616 0 0 1 3.612-3.612h11.136c1.99 0 3.611 1.62 3.611 3.612v10.191a3.616 3.616 0 0 1-3.611 3.612H13.397a3.616 3.616 0 0 1-3.611-3.612v-10.19z" fill="#fff"/><path d="M18.965 23.19c2.86 0 5.19-2.328 5.19-5.19a5.196 5.196 0 0 0-5.19-5.192 5.196 5.196 0 0 0-5.19 5.191 5.196 5.196 0 0 0 5.19 5.192zm0-8.412a3.225 3.225 0 0 1 3.221 3.223 3.225 3.225 0 0 1-3.221 3.222 3.225 3.225 0 0 1-3.222-3.222 3.225 3.225 0 0 1 3.222-3.223zm5.67-1.131a1.4 1.4 0 1 0-.002-2.796 1.4 1.4 0 0 0 .002 2.796z" fill="#fff"/><defs><linearGradient id="a" x1="6.227" y1="30.741" x2="31.708" y2="5.268" gradientUnits="userSpaceOnUse"><stop stop-color="#FAAD4F"/><stop offset=".35" stop-color="#DD2A7B"/><stop offset=".62" stop-color="#9537B0"/><stop offset="1" stop-color="#515BD4"/></linearGradient></defs></svg>