<svg style="height:46px;width:46px" id="Capa_1" data-name="Capa 1" xmlns="http://www.w3.org/2000/svg" viewBox="0 0 250 250"><defs><style>.cls-1{fill:#a20004}</style></defs><path class="cls-1" d="M125 6a115.68 115.68 0 0 0-79.48 199.74c-3.69 9.61-11.72 23.1-29.27 36.26 0 0 30.4 9.78 63.21-13.94A115.7 115.7 0 1 0 125 6zm63.37 103.59h-19.85l-5.2 20h25.05v21.74h-30.7l-7.21 27.72h-29.15l7.23-27.72h-22.6l-7.28 27.72H69.71L77 151.33H62.85v-21.74h19.77l5.22-20h-25V87.85h30.67l7.35-28.19H130l-7.41 28.19h22.51l7.36-28.19h29l-7.33 28.19h14.19z"/><path class="cls-1" d="M113.64 129.06h19.98l4.62-17.71h-19.95l-4.65 17.71z"/></svg>