<svg viewBox="0 0 37 36" xmlns="http://www.w3.org/2000/svg"><path d="M18.994 0h-.081C8.997 0 .959 8.04.959 17.959v.082C.959 27.959 8.997 36 18.913 36h.081c9.916 0 17.954-8.04 17.954-17.959v-.082C36.948 8.041 28.91 0 18.994 0z"/><path d="M28.078 14.298v3.399a8.936 8.936 0 0 1-4.707-1.906v6.87l-.014-.021a6.195 6.195 0 0 1-6.173 6.604 6.195 6.195 0 0 1-6.187-6.19c0-3.411 2.775-6.19 6.187-6.19.334 0 .662.027.982.078v3.35a2.934 2.934 0 0 0-3.913 2.762 2.934 2.934 0 0 0 2.93 2.932 2.935 2.935 0 0 0 2.926-3.113V9.523h3.396l.036.865a2.68 2.68 0 0 0 .576 1.555 6.441 6.441 0 0 0 1.877 1.617c.8.454 1.552.648 2.084.74v-.002z" fill="#FF004F"/><path d="M26.91 11.538v3.399a8.936 8.936 0 0 1-4.707-1.906v6.87l-.013-.021a6.195 6.195 0 0 1-6.173 6.604 6.195 6.195 0 0 1-6.188-6.19c0-3.41 2.775-6.19 6.187-6.19.335 0 .662.027.983.079v3.35a2.934 2.934 0 0 0-3.912 2.762 2.934 2.934 0 0 0 2.93 2.931 2.935 2.935 0 0 0 2.925-3.113V6.76h3.395l.037.866a2.68 2.68 0 0 0 .576 1.555 6.442 6.442 0 0 0 1.876 1.617c.8.452 1.552.648 2.084.74z" fill="#00F7EF"/><path d="M27.653 13.024v3.399a8.934 8.934 0 0 1-4.707-1.906v6.87l-.014-.021a6.196 6.196 0 0 1-6.173 6.604 6.195 6.195 0 0 1-6.187-6.19c0-3.411 2.775-6.19 6.187-6.19.334 0 .662.027.982.079v3.35a2.934 2.934 0 0 0-3.912 2.762 2.934 2.934 0 0 0 2.93 2.93 2.935 2.935 0 0 0 2.925-3.112V8.249h3.396l.036.865a2.68 2.68 0 0 0 .577 1.555 6.441 6.441 0 0 0 1.876 1.617c.8.453 1.552.648 2.084.74v-.002z" fill="#fff"/></svg>