<svg xmlns="http://www.w3.org/2000/svg" width="46" height="41" viewBox="0 -0.5 46 41"><path fill="none" d="M0-.5h46v41H0z"></path><circle fill="#005CB9" cx="22.938" cy="20" r="20"></circle><path d="M11.816 10.769v1.889c-.072.02-.185.039-.34.059-.154.02-.306.029-.458.029-.15 0-.283-.012-.398-.034a.7.7 0 0 1-.286-.123.546.546 0 0 1-.171-.246 1.183 1.183 0 0 1-.06-.413V7.295c0-.138.038-.244.114-.32a.798.798 0 0 1 .31-.182c.223-.079.482-.136.777-.172.295-.037.61-.055.944-.055.906 0 1.587.191 2.046.571.459.38.689.896.689 1.544 0 .407-.105.753-.315 1.043-.21.288-.459.511-.748.668.236.322.469.624.699.906.229.282.41.538.541.768a.889.889 0 0 1-.359.503 1.032 1.032 0 0 1-.585.175c-.145 0-.269-.016-.374-.049a.907.907 0 0 1-.275-.136 1.065 1.065 0 0 1-.217-.213 2.687 2.687 0 0 1-.187-.271l-.826-1.309h-.521v.003zm.62-1.309c.25 0 .446-.064.591-.192.144-.128.216-.316.216-.566 0-.249-.08-.438-.241-.565-.161-.128-.415-.191-.762-.191-.098 0-.178.003-.236.009a3.322 3.322 0 0 0-.197.03V9.46h.629zm4.69-2.617a2.08 2.08 0 0 1 .507-.187c.227-.059.454-.089.685-.089.328 0 .618.048.87.143.253.096.415.244.488.448.117.341.246.737.384 1.191a108.307 108.307 0 0 1 .815 2.828c.132.468.247.884.346 1.245a.824.824 0 0 1-.355.222 1.707 1.707 0 0 1-.56.083 1.67 1.67 0 0 1-.399-.04.713.713 0 0 1-.265-.118.577.577 0 0 1-.168-.207 1.877 1.877 0 0 1-.113-.295l-.177-.679h-1.781c-.053.197-.104.4-.157.611a57.89 57.89 0 0 1-.157.609 1.77 1.77 0 0 1-.66.118c-.335 0-.583-.058-.743-.172a.554.554 0 0 1-.241-.478c0-.092.013-.184.04-.276.026-.091.056-.2.088-.325.046-.177.11-.396.192-.659.082-.262.172-.546.27-.851.099-.306.204-.619.315-.94l.314-.91a34.676 34.676 0 0 1 .462-1.272zm1.182 1.269c-.092.275-.195.582-.311.92-.115.337-.218.68-.31 1.028h1.22a65.662 65.662 0 0 0-.541-1.948h-.058zm5.546 4.614h-.382c-.145 0-.293-.01-.449-.03a7.481 7.481 0 0 1-.461-.074 2.35 2.35 0 0 1-.428-.123c-.362-.138-.541-.378-.541-.72V7.178c0-.138.038-.245.113-.321a.805.805 0 0 1 .311-.182 4.13 4.13 0 0 1 .895-.183c.314-.029.597-.044.846-.044.513 0 .976.062 1.392.188.416.124.774.315 1.074.574.297.259.528.584.692.977.164.394.246.859.246 1.396 0 .524-.079.981-.236 1.371-.157.39-.383.717-.674.982a2.817 2.817 0 0 1-1.048.594c-.409.13-.858.196-1.35.196zm-.551-1.427a3.67 3.67 0 0 0 .56.049c.223 0 .427-.032.615-.098.187-.066.348-.167.481-.304.134-.137.239-.315.315-.535.074-.219.113-.482.113-.79 0-.588-.139-1.031-.414-1.329-.274-.297-.643-.447-1.102-.447h-.28c-.096 0-.192.01-.29.029v3.425zm6.166 1.358c-.072.02-.186.039-.339.059s-.307.029-.458.029c-.152 0-.283-.012-.398-.034a.732.732 0 0 1-.289-.123.521.521 0 0 1-.178-.246 1.21 1.21 0 0 1-.059-.413V6.735c.072-.014.188-.032.344-.055.158-.022.309-.036.452-.036.151 0 .284.013.399.036a.696.696 0 0 1 .289.123.535.535 0 0 1 .178.246c.04.105.059.242.059.413v5.195zm.51-3.07c0-.512.08-.965.242-1.357.16-.395.379-.723.658-.99.279-.265.605-.466.982-.604a3.514 3.514 0 0 1 1.226-.208c.438 0 .849.069 1.226.208.377.138.707.339.989.604.281.267.503.595.664.99.16.393.241.846.241 1.357s-.08.966-.236 1.362a2.748 2.748 0 0 1-.654.994 2.799 2.799 0 0 1-.988.605c-.38.138-.793.207-1.24.207-.445 0-.859-.07-1.24-.212a2.767 2.767 0 0 1-.982-.614c-.275-.269-.492-.601-.649-.994s-.239-.842-.239-1.348zm1.77 0c0 .597.122 1.043.364 1.338s.568.442.975.442c.413 0 .741-.147.984-.442.242-.295.363-.741.363-1.338 0-.591-.119-1.033-.358-1.328-.24-.295-.565-.443-.979-.443-.406 0-.732.146-.979.438s-.37.737-.37 1.333zM42.762 27.65L23 28.768 3.237 27.65a.721.721 0 0 1-.707-.56L.693 14.965a.7.7 0 0 1 .679-.854h43.253c.445 0 .775.416.68.854l-1.836 12.126a.722.722 0 0 1-.707.559z" fill="#FFF"></path><path fill="#005CB9" d="M23 29.093l-.019-.001-19.753-1.117a1.04 1.04 0 0 1-1.015-.812l-.005-.022L.374 15.023a1.024 1.024 0 0 1 .999-1.237h43.253a1.026 1.026 0 0 1 1 1.236L43.789 27.15l-.003.012a1.04 1.04 0 0 1-1.015.812L23 29.093zM2.85 27.03a.4.4 0 0 0 .387.295h.019L23 28.441l19.752-1.117h.012a.401.401 0 0 0 .387-.295l1.836-12.124.004-.011a.392.392 0 0 0-.075-.32.37.37 0 0 0-.288-.139H1.373a.372.372 0 0 0-.288.139.384.384 0 0 0-.074.32l.004.021L2.85 27.03z"></path><path fill="#E2231A" d="M11.919 16.089h2.969v2.042h-.513v5.285h.513v2.054h-3.181v-2.054h.514V20.11l-1.478 4.045-1.44-4.045v3.306h.513v2.054H6.597v-2.054h.513v-5.285h-.527v-2.042h3.082l1.126 3.168 1.128-3.168zm9.356 7.327h.375v2.054h-2.93v-2.054h.389v-.775h-1.353l-.013.775h.375v2.054H15.2v-2.054h.376l1.177-7.339h3.344l1.178 7.339zm-2.379-2.018l-.476-2.904-.451 2.904h.927zm8.854 2.004h.516v2.067h-2.793v-3.743h-.677v1.676h.363v2.067H21.99v-2.067h.5v-5.284h-.5V16.09h4.796l.964.989v2.931l-.789.789.789.79v1.813zm-2.279-5.284h-.688v2.143h.688v-2.143zm7.289-2.029l.979.989v2.893h-2.268v-1.816l-.688-.013v5.272h.688v-1.828h2.268v2.88l-.979 1.004h-3.244l-.953-1.001v-7.39l.953-.989 3.244-.001zm7.74 7.327v2.054h-2.918v-2.054h.376v-.775h-1.354l-.012.775h.376v2.054h-2.905v-2.054h.363l1.178-7.339h3.344l1.177 7.339h.375zm-2.755-2.018l-.476-2.904-.451 2.904h.927z"></path><path fill="#FFF" d="M21.172 30.626l.129-.646a.254.254 0 0 1 .294-.194c1.115.188 1.693.188 2.807 0a.255.255 0 0 1 .295.194l.129.646c.025.133-.078.267-.232.292-1.267.214-1.923.214-3.19 0-.154-.025-.258-.159-.232-.292zm-1.276 1.661l.187-.63c.039-.13.199-.196.357-.154 1.673.442 3.447.442 5.121 0 .157-.042.317.024.355.154.076.251.113.378.188.63.039.129-.072.279-.25.326a11.222 11.222 0 0 1-5.708 0c-.177-.049-.289-.197-.25-.326z"></path><path fill="#FFF" d="M18.236 33.77l.252-.606c.051-.125.238-.166.417-.099 2.568 1.033 5.619.973 8.188 0 .179-.067.365-.026.417.099l.252.606c.051.125-.066.293-.263.369-3.188.969-5.827.963-9.001 0-.196-.077-.313-.244-.262-.369zm2.872 2.664l.088-.651c.019-.134.208-.22.422-.196 1.102.116 1.661.116 2.762 0 .214-.023.404.062.422.196l.089.651c.019.133-.158.269-.392.293-1.197.125-1.805.125-3.003 0-.231-.025-.406-.161-.388-.293zm-1.892 1.748l.158-.64c.033-.13.251-.188.488-.137 2.198.348 4.076.348 6.275 0 .235-.052.454.007.487.137l.159.64c.033.129-.146.289-.402.346-2.208.514-4.553.451-6.762 0-.255-.058-.435-.217-.403-.346z"></path></svg>