<svg xmlns="http://www.w3.org/2000/svg" viewBox="0 0 30 21" aria-hidden="true"><path fill="#FFF" d="M3.117 10.505a10.29 10.29 0 0 0 3.057 7.388 1.525 1.525 0 0 1-.01 2.176c-.304.297-.7.445-1.097.445-.401 0-.803-.152-1.107-.456C1.388 17.495-.018 14.097 0 10.49.018 6.883 1.458 3.5 4.054.961a1.573 1.573 0 0 1 2.204.01 1.525 1.525 0 0 1-.01 2.176 10.291 10.291 0 0 0-3.13 7.358zm7.772-6.352c.606.604.6 1.578-.011 2.176a5.93 5.93 0 0 0-1.804 4.24 5.928 5.928 0 0 0 1.762 4.256c.606.603.6 1.578-.01 2.175a1.565 1.565 0 0 1-1.098.446c-.4 0-.802-.152-1.107-.456a8.965 8.965 0 0 1-2.664-6.437 8.966 8.966 0 0 1 2.728-6.41 1.573 1.573 0 0 1 2.204.01zM25.998.972a13.396 13.396 0 0 1-.095 19.097c-.304.297-.7.445-1.096.445-.402 0-.803-.152-1.108-.456a1.524 1.524 0 0 1 .011-2.176 10.292 10.292 0 0 0 3.13-7.358 10.29 10.29 0 0 0-3.057-7.387 1.524 1.524 0 0 1 .01-2.176 1.573 1.573 0 0 1 2.205.01zm-4.662 3.15a9.012 9.012 0 0 1-.063 12.848c-.304.297-.7.445-1.097.445-.401 0-.803-.152-1.107-.456a1.524 1.524 0 0 1 .01-2.176 5.93 5.93 0 0 0 1.804-4.239 5.929 5.929 0 0 0-1.761-4.257 1.524 1.524 0 0 1 .01-2.175 1.573 1.573 0 0 1 2.204.01zM15.048 7.56c1.665.02 2.97 1.315 2.972 2.947 0 .8-.31 1.547-.875 2.106a2.975 2.975 0 0 1-2.105.858H15c-1.644-.021-2.985-1.344-2.99-2.95a2.906 2.906 0 0 1 .873-2.086 3.006 3.006 0 0 1 2.13-.875h.035z"/></svg>