<svg viewBox="0 0 37 36" xmlns="http://www.w3.org/2000/svg"><path fill-rule="evenodd" clip-rule="evenodd" d="M18.964 36c9.885 0 17.984-8.1 17.984-17.984C36.948 8.1 28.848 0 18.964 0 9.047 0 .948 8.099.948 18.016.948 27.901 9.048 36 18.964 36z" fill="#E17842"/><path fill-rule="evenodd" clip-rule="evenodd" d="M8.824 11.256c9.28 0 16.9 7.588 16.9 16.868h5.612c0-12.372-10.14-22.48-22.512-22.48v5.612zm3.061 11.255a2.79 2.79 0 0 1 2.806 2.807 2.79 2.79 0 0 1-2.806 2.806 2.79 2.79 0 0 1-2.806-2.806 2.79 2.79 0 0 1 2.806-2.807zm-3.06-3.38c4.941 0 8.991 4.05 8.991 8.993h5.644c0-8.036-6.568-14.604-14.636-14.604v5.611z" fill="#fff"/></svg>