<svg xmlns="http://www.w3.org/2000/svg" viewBox="0 0 24 24" aria-hidden="true"><circle fill="#AED6F1" cx="12" cy="12" r="8.5"/><g fill="#34495E"><path d="m16.116 7.003.018.134-.2.042-.026.284h.239l.319-.03.164-.197-.174-.067-.097-.11-.144-.234-.069-.33-.271.056-.075.116v.131l.132.089.184.116z"/><path d="m15.887 7.113.012-.178-.157-.069-.222.051-.166.265v.172h.192l.341-.241zm-4.574.758-.049.126h-.236v.122h.056l.008.06.146-.012.091-.056.023-.113.117-.01.047-.095-.107-.022h-.096zm-.609.222-.009.119.171-.014.018-.12-.103-.081-.077.096z"/><path d="M20.998 11.907a8.843 8.843 0 0 0-.635-3.233l-.068-.172a9.005 9.005 0 0 0-1.829-2.755 8.98 8.98 0 0 0-13.588.761A8.952 8.952 0 0 0 3 12c0 4.963 4.038 9 9 9 3.491 0 6.521-2 8.014-4.911A8.973 8.973 0 0 0 21 12l-.002-.093zm-1.693-3.596.053-.059c.067.133.133.268.192.404l-.085-.003-.16.022v-.364zm-1.302-1.572.002-.401c.142.149.278.304.408.464l-.163.24-.566-.004-.036-.118.355-.181zM7.147 5.74v-.014h.18l.016-.063h.295v.128l-.084.114h-.408l.001-.165zm.288.402s.181-.031.195-.031c.016 0 0 .179 0 .179l-.406.027-.077-.092.288-.083zm12.443 3.573h-.659l-.4-.299-.422.041v.258h-.135l-.145-.103-.73-.185v-.474l-.928.072-.288.154h-.366l-.181-.018-.447.248v.466l-.913.66.075.281h.187l-.049.267-.131.048-.007.7.789.899h.345l.021-.056h.616l.18-.165h.35l.192.193.522.054-.07.694.58 1.023-.307.582.021.274.24.239v.66l.315.426v.549h.271a8.245 8.245 0 0 1-6.406 3.054c-4.552 0-8.257-3.704-8.257-8.26 0-1.146.234-2.239.658-3.232V8.51l.296-.358c.103-.194.212-.383.329-.566l.014.149-.342.416c-.107.2-.207.405-.297.616v.47l.344.165v.654l.329.562.268.041.034-.192-.315-.488-.062-.473h.186l.078.487.455.666-.117.214.291.445.721.178v-.116l.287.041-.028.206.227.041.351.096.494.563.632.047.061.517-.432.301-.02.459-.063.281.625.783.046.268s.227.063.255.063c.028 0 .509.364.509.364v1.414l.17.048-.115.65.287.385-.053.646.381.671.489.426.491.011.049-.159-.361-.305.021-.15.065-.186.013-.188-.245-.007-.123-.154.203-.195.027-.147-.227-.063.014-.139.323-.049.491-.234.164-.303.516-.658-.117-.516.158-.273.473.014.318-.252.103-.997.354-.45.063-.289-.323-.104-.213-.349-.727-.008-.576-.22-.027-.411-.193-.336-.521-.008-.301-.474-.268-.131-.014.145-.487.029-.179-.249-.508-.102-.42.484-.659-.111-.047-.743-.482-.083.193-.364-.055-.209-.632.422-.397-.048-.142-.311.088-.32.219-.404.504-.255.974-.001-.002.298.35.162-.028-.508.252-.254.509-.333.036-.236.508-.529.539-.299-.046-.04.365-.344.135.036.061.077.139-.154.035-.015-.152-.021-.154-.051v-.15l.082-.067h.18l.082.037.072.144.087-.013v-.013l.025.008.253-.039.035-.124.143.037v.133l-.133.093.02.146.459.142v.006l.106-.009.007-.199-.363-.165-.022-.096.303-.104.014-.288-.317-.192-.02-.487-.433.212h-.158l.042-.37-.589-.139-.243.184v.561l-.438.139-.177.367-.189.031v-.468l-.412-.057-.205-.134-.083-.303.735-.432.361-.109.036.242.2-.011.016-.121.21-.03.004-.043-.091-.037-.02-.129.259-.021.155-.162.009-.012h.002l.047-.049.543-.068.239.204-.629.335.8.188.104-.268h.351l.124-.233-.248-.063V5.3l-.775-.344-.535.062-.303.158.021.385-.316-.048-.049-.213.302-.275-.549-.027-.158.047-.068.185.206.035-.041.206-.35.021-.054.137-.508.014s-.014-.288-.035-.288l.398-.007.302-.295-.165-.083-.219.213-.365-.021-.219-.302h-.467l-.487.364h.446l.041.131-.116.107.495.014.074.178-.556-.02-.026-.137-.35-.076-.186-.103-.417.003A8.218 8.218 0 0 1 12 3.74c2.089 0 3.997.78 5.452 2.063l-.099.176-.381.149-.16.174.037.203.196.027.118.296.34-.136.055.396h-.102l-.276-.041-.309.053-.299.422-.428.067-.063.365.182.043-.053.235-.424-.086-.39.086-.082.217.066.454.229.107.384-.003.259-.022.078-.207.404-.525.268.054.262-.237.049.185.645.436-.078.106-.291-.016.111.159.18.039.209-.088-.005-.251.092-.047-.074-.079-.43-.24-.111-.319h.356l.114.113.309.265.014.321.318.34.119-.465.221-.121.043.381.215.237.43-.008c.084.214.157.433.225.655l-.047.042zM7.909 7.089l.216-.103.196.047-.068.262-.211.067-.133-.273zm1.147.618v.17h-.493l-.185-.052.045-.119.238-.098h.324v.098l.071.001zm.228.237v.165l-.124.079-.154.029v-.273h.278zm-.139-.067v-.196l.17.155-.17.041zm.077.396v.161l-.118.118h-.263l.041-.18.125-.011.025-.063.19-.025zm-.655-.329h.273l-.35.489-.143-.078.031-.206.189-.205zm1.118.273v.16h-.262l-.072-.104v-.149h.021l.313.093zm-.243-.22.075-.08.126.08-.101.083-.1-.083zm10.57 2.135.026-.03.03.141-.056-.111z"/><path d="M4.399 8.51v.258c.09-.21.189-.415.297-.616l-.297.358z"/></g></svg>