<svg xmlns="http://www.w3.org/2000/svg" style="isolation:isolate" viewBox="201.5 111 24 21" aria-hidden="true"><path fill="#FFF" d="M204.5 115.5h18v12h-18v-12z"/><path fill="#B22234" d="M204.5 115.5h18v1h-18v-1zm0 2h18v1h-18v-1zm0 1.8h18v1h-18v-1zm0 1.8h18v1h-18v-1zm0 1.9h18v1h-18v-1zm0 1.8h18v1h-18v-1zm0 1.7h18v1h-18v-1z"/><path fill="#3C3B6E" d="M204.5 115.5h9.2v6.5h-9.2v-6.5z"/><path fill="#FFF" d="m204.9 116.1.3.1-.1.3.2-.2.2.2v-.3l.1-.1h-.1l-.1-.3-.1.3h-.4zm1.6 0 .2.1-.2.3.2-.2.2.2v-.3l.2-.1h-.3v-.3l-.2.3h-.1zm1.5 0 .2.1v.3l.1-.2.3.2-.1-.3.2-.1h-.3v-.3l-.1.3h-.3zm1.5 0 .2.1v.3l.2-.2.2.2-.1-.3.2-.1h-.3v-.3l-.1.3h-.3zm1.5 0 .3.1-.1.3.2-.2.2.2v-.3l.1-.1h-.2l-.1-.3-.1.3h-.3zm1.6 0 .2.1-.1.3.2-.2.2.2v-.3l.2-.1h-.3v-.3l-.2.3h-.2zm-6.9.6.2.2v.2l.2-.1.2.1-.1-.2.2-.2h-.3v-.2l-.1.2h-.3zm1.5 0 .2.2v.2l.2-.1.2.1v-.2l.1-.2h-.2l-.2-.2-.1.2h-.2zm1.5 0 .3.2-.1.2.2-.1.2.1v-.2l.2-.2h-.3l-.1-.2v.2h-.4zm1.6 0 .2.2v.2l.1-.1.2.1v-.2l.2-.2h-.3v-.2l-.2.2h-.2zm1.5 0 .2.2v.2l.2-.1.2.1-.1-.2.2-.2h-.3v-.2l-.1.2h-.3zm-6.9.6.3.2-.1.3.2-.2.2.2v-.3l-.1-.3-.1.3-.4-.2zm1.6 0 .2.2-.1.3.2-.2.2.2v-.3l.2-.1h-.3v-.3l-.2.3-.2-.1zm1.5 0 .2.2v.3l.1-.2.3.2-.1-.3.2-.1h-.3v-.3l-.1.3-.3-.1zm1.5 0 .2.2v.3l.2-.2.2.2-.1-.3.2-.1h-.3v-.3l-.1.3-.3-.1zm1.5 0 .3.2-.1.3.2-.2.2.2v-.3l.1-.1h-.2l-.1-.3-.1.3-.3-.1zm1.6 0 .2.2-.1.3.2-.2.2.2v-.3l.2-.1h-.3v-.3l-.2.3-.2-.1zm-6.9.7.2.2v.2l.2-.2.2.2-.1-.2.2-.2h-.2l-.1-.3-.1.3h-.3zm1.5 0 .3.2-.1.2.2-.2.2.2v-.2l.1-.2h-.2l-.2-.3v.3h-.3zm1.6 0 .2.2-.1.2.2-.2.2.2v-.2l.2-.2h-.3v-.3l-.2.3h-.2zm1.5 0 .2.2v.2l.1-.2.3.2-.1-.2.2-.2h-.3v-.3l-.1.3h-.3zm1.5 0 .2.2v.2l.2-.2.2.2-.1-.2.2-.2h-.2l-.1-.3-.1.3h-.3zm-6.8.5.2.2-.1.2.2-.1.2.1v-.2l.2-.2h-.3l-.2.2-.2-.2zm1.5 0 .2.2v.2l.1-.1.3.1-.1-.2.2-.2h-.3l-.1.2-.3-.2zm1.5 0 .2.2v.2l.2-.1.2.1-.1-.2.2-.2h-.2l-.1.2-.4-.2zm1.5 0 .3.2-.1.2.2-.1.2.1v-.2l.1-.2h-.3l-.1.2-.3-.2zm1.6 0 .2.2-.1.2.2-.1.2.1v-.2l.2-.2h-.3l-.2.2-.2-.2zm1.5 0 .2.2v.2l.1-.1.3.1-.1-.2.2-.2h-.3l-.1.2-.3-.2zm-7.6 1.4.2.2-.1.2.2-.1.2.1v-.2l.2-.2h-.3v-.3l-.2.3h-.2zm1.5 0 .2.2v.2l.2-.1.2.1-.1-.2.2-.2h-.3v-.3l-.1.3h-.3zm1.5 0 .2.2v.2l.2-.1.2.1v-.2l.1-.2h-.2l-.1-.3-.1.3h-.3zm1.5 0 .3.2-.1.2.2-.1.2.1v-.2l.2-.2h-.3l-.1-.3v.3h-.4zm1.6 0 .2.2v.2l.1-.1.2.1v-.2l.2-.2h-.3v-.3l-.2.3h-.2zm1.5 0 .2.2v.2l.2-.1.2.1-.1-.2.2-.2h-.3v-.3l-.1.3h-.3zm-7.6 1.3.2.1-.1.3.2-.2.2.2v-.3l.2-.1h-.3v-.3l-.2.3h-.2zm1.5 0 .2.1v.3l.1-.2.3.2-.1-.3.2-.1h-.3v-.3l-.2.3h-.2zm1.5 0 .2.1v.3l.2-.2.2.2-.1-.3.2-.1h-.2v-.3l-.1.3h-.4zm1.5 0 .2.1v.3l.2-.2.2.2v-.3l.1-.1h-.2l-.1-.3-.1.3h-.3zm1.6 0 .2.1-.1.3.2-.2.2.2v-.3l.2-.1h-.3v-.3l-.2.3h-.2zm1.5 0 .2.1v.3l.1-.2.3.2-.1-.3.2-.1h-.3v-.3l-.2.3h-.2zm-6.9-2 .2.2v.3l.2-.2.2.2v-.3l.1-.1h-.2l-.1-.3-.1.3-.3-.1zm1.5 0 .3.3-.1.3.1-.3.2.2v-.3l.2-.1h-.3l-.1-.3v.3l-.3-.1zm1.6 0 .2.2-.1.3.2-.2.2.2v-.3l.2-.1h-.3v-.3l-.2.3-.2-.1zm1.5 0 .2.3v.3-.3l.3.2-.1-.3.2-.1h-.3v-.3l-.1.3-.2-.1zm1.5 0 .2.2v.3l.2-.2.2.2v-.3l.1-.1h-.2l-.1-.3-.1.3-.3-.1zm-6 1.3.1.2v.2l.2-.1.2.2-.1-.3.2-.2h-.2l-.1-.2-.1.2h-.2zm1.4 0 .3.2-.1.2.2-.1.2.2v-.3l.1-.2h-.2l-.2-.2v.2h-.3zm1.6 0 .2.2-.1.2.2-.1.2.2v-.3l.2-.2h-.3v-.2l-.2.2h-.2zm1.5 0 .2.2v.2l.1-.1.3.2-.1-.3.2-.2h-.3v-.2l-.2.2h-.2zm1.5 0 .2.2v.2l.2-.1.2.2-.1-.3.2-.2h-.2l-.1-.2-.1.2h-.3z"/><path fill="none" d="M201.5 111h24v21h-24z"/></svg>